<svg id="CIRCLE_OUTLINE_BLACK" data-name="CIRCLE OUTLINE BLACK" xmlns="http://www.w3.org/2000/svg" viewBox="0 0 512 512"><path d="M256.00011,0c-141.38477,0-256,114.61523-256,256s114.61523,256,256,256,256-114.61524,256-256S397.38487,0,256.00011,0ZM267.462,345.30029s-16.86377,1.13281-20.87695,1.748a47.1651,47.1651,0,0,0-39.0415,37.126s-5.24414,25.60352-5.76123,27.86866a4.43558,4.43558,0,0,0,0,.86718,4.84272,4.84272,0,0,1-.11182.47559,17.46007,17.46007,0,0,1-21.28272,12.543H179.423a2.38848,2.38848,0,0,1-.30762-.07031,17.46951,17.46951,0,0,1-12.62695-21.24024c0-1.748,41.57227-194.17383,41.57227-194.17383a18.17537,18.17537,0,0,1,35.54589,7.60694L226.12706,296.666l-2.88037,15.71729a1.21765,1.21765,0,0,0,0,1.48242l.01416.01367a1.21953,1.21953,0,0,0,1.73389-.01367,96.19025,96.19025,0,0,1,10.13818-2.01367c9.25684-1.13281,27.86865-2.26514,27.86865-2.26514a95.64462,95.64462,0,1,0-101.40771-98.3457,87.48305,87.48305,0,0,0,5.16016,33.79785,18.24842,18.24842,0,1,1-34.59522,11.62061,136.20149,136.20149,0,0,1-6.9917-43.06885A133.12727,133.12727,0,0,1,257.75792,81a132.49888,132.49888,0,0,1,9.7041,264.30029Z" style="fill:#1e1e1e"/><path d="M265.79825,386.71915a22.09515,22.09515,0,0,0-26.135,17.12967c-.028.11188-.04195.22375-.06992.33559a22.00739,22.00739,0,0,0,16.822,26.19092.05133.05133,0,0,1,.04195.014h.61527a21.65082,21.65082,0,0,0,26.135-15.969c.028-.08392.042-.18179.06992-.26567v-1.21655A22.91212,22.91212,0,0,0,265.79825,386.71915Z" style="fill:#e6007a"/></svg>